<mxfile host="app.diagrams.net" modified="2021-03-16T15:02:08.569Z" agent="5.0 (Macintosh; Intel Mac OS X 10_15_7) AppleWebKit/537.36 (KHTML, like Gecko) Chrome/88.0.4324.192 Safari/537.36" etag="dZMGae1whgRKlt4Hyzq7" version="14.4.8" type="github">
  <diagram name="Page-1" id="74e2e168-ea6b-b213-b513-2b3c1d86103e">
    <mxGraphModel dx="1426" dy="794" grid="1" gridSize="10" guides="1" tooltips="1" connect="1" arrows="1" fold="1" page="1" pageScale="1" pageWidth="1100" pageHeight="850" background="#ffffff" math="0" shadow="0">
      <root>
        <mxCell id="0" />
        <mxCell id="1" parent="0" />
        <mxCell id="pT30bIbHbtRWTIao18I9-3" value="" style="edgeStyle=orthogonalEdgeStyle;rounded=0;orthogonalLoop=1;jettySize=auto;html=1;" edge="1" parent="1" source="pT30bIbHbtRWTIao18I9-1" target="pT30bIbHbtRWTIao18I9-2">
          <mxGeometry relative="1" as="geometry" />
        </mxCell>
        <mxCell id="pT30bIbHbtRWTIao18I9-1" value="输入账号密码或微信扫码或小程序一键登录" style="rounded=0;whiteSpace=wrap;html=1;" vertex="1" parent="1">
          <mxGeometry x="390" y="120" width="120" height="60" as="geometry" />
        </mxCell>
        <mxCell id="pT30bIbHbtRWTIao18I9-5" value="" style="edgeStyle=orthogonalEdgeStyle;rounded=0;orthogonalLoop=1;jettySize=auto;html=1;" edge="1" parent="1" source="pT30bIbHbtRWTIao18I9-2" target="pT30bIbHbtRWTIao18I9-4">
          <mxGeometry relative="1" as="geometry" />
        </mxCell>
        <mxCell id="pT30bIbHbtRWTIao18I9-7" value="有账号并判断公司数" style="edgeLabel;html=1;align=center;verticalAlign=middle;resizable=0;points=[];" vertex="1" connectable="0" parent="pT30bIbHbtRWTIao18I9-5">
          <mxGeometry x="-0.075" y="-1" relative="1" as="geometry">
            <mxPoint as="offset" />
          </mxGeometry>
        </mxCell>
        <mxCell id="pT30bIbHbtRWTIao18I9-17" value="" style="edgeStyle=orthogonalEdgeStyle;rounded=0;orthogonalLoop=1;jettySize=auto;html=1;" edge="1" parent="1" source="pT30bIbHbtRWTIao18I9-2" target="pT30bIbHbtRWTIao18I9-16">
          <mxGeometry relative="1" as="geometry" />
        </mxCell>
        <mxCell id="pT30bIbHbtRWTIao18I9-40" value="无" style="edgeLabel;html=1;align=center;verticalAlign=middle;resizable=0;points=[];" vertex="1" connectable="0" parent="pT30bIbHbtRWTIao18I9-17">
          <mxGeometry x="-0.1" y="3" relative="1" as="geometry">
            <mxPoint as="offset" />
          </mxGeometry>
        </mxCell>
        <mxCell id="pT30bIbHbtRWTIao18I9-2" value="有/无" style="rhombus;whiteSpace=wrap;html=1;rounded=0;" vertex="1" parent="1">
          <mxGeometry x="410" y="250" width="80" height="80" as="geometry" />
        </mxCell>
        <mxCell id="pT30bIbHbtRWTIao18I9-9" value="" style="edgeStyle=orthogonalEdgeStyle;rounded=0;orthogonalLoop=1;jettySize=auto;html=1;entryX=0.5;entryY=0;entryDx=0;entryDy=0;" edge="1" parent="1" source="pT30bIbHbtRWTIao18I9-4" target="pT30bIbHbtRWTIao18I9-25">
          <mxGeometry relative="1" as="geometry">
            <mxPoint x="90" y="650" as="targetPoint" />
          </mxGeometry>
        </mxCell>
        <mxCell id="pT30bIbHbtRWTIao18I9-10" value="否" style="edgeLabel;html=1;align=center;verticalAlign=middle;resizable=0;points=[];" vertex="1" connectable="0" parent="pT30bIbHbtRWTIao18I9-9">
          <mxGeometry x="-0.3" y="-2" relative="1" as="geometry">
            <mxPoint as="offset" />
          </mxGeometry>
        </mxCell>
        <mxCell id="pT30bIbHbtRWTIao18I9-19" value="" style="edgeStyle=orthogonalEdgeStyle;rounded=0;orthogonalLoop=1;jettySize=auto;html=1;" edge="1" parent="1" source="pT30bIbHbtRWTIao18I9-4" target="pT30bIbHbtRWTIao18I9-18">
          <mxGeometry relative="1" as="geometry" />
        </mxCell>
        <mxCell id="pT30bIbHbtRWTIao18I9-36" value="" style="edgeStyle=orthogonalEdgeStyle;rounded=0;orthogonalLoop=1;jettySize=auto;html=1;" edge="1" parent="1" source="pT30bIbHbtRWTIao18I9-4" target="pT30bIbHbtRWTIao18I9-35">
          <mxGeometry relative="1" as="geometry" />
        </mxCell>
        <mxCell id="pT30bIbHbtRWTIao18I9-4" value="&amp;gt;1" style="rhombus;whiteSpace=wrap;html=1;rounded=0;" vertex="1" parent="1">
          <mxGeometry x="410" y="400" width="80" height="80" as="geometry" />
        </mxCell>
        <mxCell id="pT30bIbHbtRWTIao18I9-15" style="edgeStyle=orthogonalEdgeStyle;rounded=0;orthogonalLoop=1;jettySize=auto;html=1;entryX=0.5;entryY=0;entryDx=0;entryDy=0;" edge="1" parent="1" source="pT30bIbHbtRWTIao18I9-14" target="pT30bIbHbtRWTIao18I9-1">
          <mxGeometry relative="1" as="geometry" />
        </mxCell>
        <mxCell id="pT30bIbHbtRWTIao18I9-14" value="开始" style="rounded=1;whiteSpace=wrap;html=1;" vertex="1" parent="1">
          <mxGeometry x="390" y="30" width="120" height="50" as="geometry" />
        </mxCell>
        <mxCell id="pT30bIbHbtRWTIao18I9-16" value="注册" style="whiteSpace=wrap;html=1;rounded=0;" vertex="1" parent="1">
          <mxGeometry x="610" y="260" width="120" height="60" as="geometry" />
        </mxCell>
        <mxCell id="pT30bIbHbtRWTIao18I9-34" style="edgeStyle=orthogonalEdgeStyle;rounded=0;orthogonalLoop=1;jettySize=auto;html=1;entryX=0;entryY=0.5;entryDx=0;entryDy=0;" edge="1" parent="1" source="pT30bIbHbtRWTIao18I9-18" target="pT30bIbHbtRWTIao18I9-25">
          <mxGeometry relative="1" as="geometry" />
        </mxCell>
        <mxCell id="pT30bIbHbtRWTIao18I9-18" value="选择公司" style="whiteSpace=wrap;html=1;rounded=0;" vertex="1" parent="1">
          <mxGeometry x="170" y="610" width="130" height="60" as="geometry" />
        </mxCell>
        <mxCell id="pT30bIbHbtRWTIao18I9-25" value="&lt;span&gt;直接登录&lt;/span&gt;" style="rounded=1;whiteSpace=wrap;html=1;" vertex="1" parent="1">
          <mxGeometry x="390" y="610" width="120" height="60" as="geometry" />
        </mxCell>
        <mxCell id="pT30bIbHbtRWTIao18I9-28" value="" style="edgeStyle=orthogonalEdgeStyle;rounded=0;orthogonalLoop=1;jettySize=auto;html=1;entryX=0.5;entryY=0;entryDx=0;entryDy=0;" edge="1" parent="1" source="pT30bIbHbtRWTIao18I9-26" target="pT30bIbHbtRWTIao18I9-30">
          <mxGeometry relative="1" as="geometry">
            <mxPoint x="930" y="200" as="targetPoint" />
          </mxGeometry>
        </mxCell>
        <mxCell id="pT30bIbHbtRWTIao18I9-26" value="外部拉人" style="rounded=1;whiteSpace=wrap;html=1;" vertex="1" parent="1">
          <mxGeometry x="870" y="25" width="120" height="55" as="geometry" />
        </mxCell>
        <mxCell id="pT30bIbHbtRWTIao18I9-31" style="edgeStyle=orthogonalEdgeStyle;rounded=0;orthogonalLoop=1;jettySize=auto;html=1;entryX=1;entryY=0.5;entryDx=0;entryDy=0;" edge="1" parent="1" source="pT30bIbHbtRWTIao18I9-30" target="pT30bIbHbtRWTIao18I9-16">
          <mxGeometry relative="1" as="geometry" />
        </mxCell>
        <mxCell id="pT30bIbHbtRWTIao18I9-32" value="无" style="edgeLabel;html=1;align=center;verticalAlign=middle;resizable=0;points=[];" vertex="1" connectable="0" parent="pT30bIbHbtRWTIao18I9-31">
          <mxGeometry x="0.025" y="-1" relative="1" as="geometry">
            <mxPoint as="offset" />
          </mxGeometry>
        </mxCell>
        <mxCell id="pT30bIbHbtRWTIao18I9-33" style="edgeStyle=orthogonalEdgeStyle;rounded=0;orthogonalLoop=1;jettySize=auto;html=1;exitX=0;exitY=0.5;exitDx=0;exitDy=0;entryX=0;entryY=0.5;entryDx=0;entryDy=0;" edge="1" parent="1" source="pT30bIbHbtRWTIao18I9-30" target="pT30bIbHbtRWTIao18I9-30">
          <mxGeometry relative="1" as="geometry">
            <mxPoint x="880" y="290" as="targetPoint" />
          </mxGeometry>
        </mxCell>
        <mxCell id="pT30bIbHbtRWTIao18I9-42" value="" style="edgeStyle=orthogonalEdgeStyle;rounded=0;orthogonalLoop=1;jettySize=auto;html=1;" edge="1" parent="1" source="pT30bIbHbtRWTIao18I9-30" target="pT30bIbHbtRWTIao18I9-41">
          <mxGeometry relative="1" as="geometry" />
        </mxCell>
        <mxCell id="pT30bIbHbtRWTIao18I9-43" value="有" style="edgeLabel;html=1;align=center;verticalAlign=middle;resizable=0;points=[];" vertex="1" connectable="0" parent="pT30bIbHbtRWTIao18I9-42">
          <mxGeometry x="-0.4" y="-1" relative="1" as="geometry">
            <mxPoint as="offset" />
          </mxGeometry>
        </mxCell>
        <mxCell id="pT30bIbHbtRWTIao18I9-30" value="是否有账号" style="rhombus;whiteSpace=wrap;html=1;" vertex="1" parent="1">
          <mxGeometry x="890" y="250" width="80" height="80" as="geometry" />
        </mxCell>
        <mxCell id="pT30bIbHbtRWTIao18I9-37" style="edgeStyle=orthogonalEdgeStyle;rounded=0;orthogonalLoop=1;jettySize=auto;html=1;entryX=0.5;entryY=1;entryDx=0;entryDy=0;" edge="1" parent="1" source="pT30bIbHbtRWTIao18I9-35" target="pT30bIbHbtRWTIao18I9-16">
          <mxGeometry relative="1" as="geometry" />
        </mxCell>
        <mxCell id="pT30bIbHbtRWTIao18I9-38" value="否" style="edgeLabel;html=1;align=center;verticalAlign=middle;resizable=0;points=[];" vertex="1" connectable="0" parent="pT30bIbHbtRWTIao18I9-37">
          <mxGeometry x="0.075" y="2" relative="1" as="geometry">
            <mxPoint as="offset" />
          </mxGeometry>
        </mxCell>
        <mxCell id="pT30bIbHbtRWTIao18I9-39" value="是" style="edgeStyle=orthogonalEdgeStyle;rounded=0;orthogonalLoop=1;jettySize=auto;html=1;entryX=1;entryY=0.5;entryDx=0;entryDy=0;" edge="1" parent="1" source="pT30bIbHbtRWTIao18I9-35" target="pT30bIbHbtRWTIao18I9-25">
          <mxGeometry relative="1" as="geometry">
            <Array as="points">
              <mxPoint x="670" y="640" />
            </Array>
          </mxGeometry>
        </mxCell>
        <mxCell id="pT30bIbHbtRWTIao18I9-35" value="是否为1" style="rhombus;whiteSpace=wrap;html=1;rounded=0;" vertex="1" parent="1">
          <mxGeometry x="630" y="400" width="80" height="80" as="geometry" />
        </mxCell>
        <mxCell id="pT30bIbHbtRWTIao18I9-44" style="edgeStyle=orthogonalEdgeStyle;rounded=0;orthogonalLoop=1;jettySize=auto;html=1;entryX=0.5;entryY=1;entryDx=0;entryDy=0;" edge="1" parent="1" source="pT30bIbHbtRWTIao18I9-41" target="pT30bIbHbtRWTIao18I9-25">
          <mxGeometry relative="1" as="geometry">
            <Array as="points">
              <mxPoint x="940" y="690" />
              <mxPoint x="450" y="690" />
            </Array>
          </mxGeometry>
        </mxCell>
        <mxCell id="pT30bIbHbtRWTIao18I9-41" value="给此账号添加公司，新建这个公司的个人目录，配置角色" style="whiteSpace=wrap;html=1;" vertex="1" parent="1">
          <mxGeometry x="870" y="410" width="120" height="60" as="geometry" />
        </mxCell>
      </root>
    </mxGraphModel>
  </diagram>
</mxfile>
